<svg width="30" height="30" viewBox="0 0 30 30" fill="none" xmlns="http://www.w3.org/2000/svg">
<g clip-path="url(#clip0_74_4)">
<path fill-rule="evenodd" clip-rule="evenodd" d="M30 25.809V15C30 6.7155 23.2845 0 15 0C6.7155 0 0 6.7155 0 15V25.809C8.80945e-05 26.2506 0.113073 26.6849 0.328225 27.0705C0.543376 27.4562 0.85355 27.7805 1.22929 28.0125C1.60502 28.2446 2.03384 28.3767 2.47502 28.3964C2.9162 28.4161 3.35509 28.3227 3.75 28.125C4.43364 27.7832 5.19547 27.6281 5.95833 27.6756C6.72118 27.723 7.45795 27.9712 8.094 28.395C8.80653 28.8699 9.64369 29.1234 10.5 29.1234C11.3563 29.1234 12.1935 28.8699 12.906 28.395L13.4355 28.044C13.8989 27.7353 14.4432 27.5705 15 27.5705C15.5568 27.5705 16.1011 27.7353 16.5645 28.044L17.094 28.3965C17.8065 28.8714 18.6437 29.1249 19.5 29.1249C20.3563 29.1249 21.1935 28.8714 21.906 28.3965C22.5422 27.9724 23.2793 27.724 24.0424 27.6766C24.8056 27.6292 25.5677 27.7844 26.2515 28.1265C26.6465 28.3239 27.0853 28.417 27.5264 28.3971C27.9675 28.3772 28.3962 28.2448 28.7717 28.0126C29.1473 27.7804 29.4573 27.4561 29.6723 27.0704C29.8872 26.6848 30 26.2505 30 25.809ZM21 12.75C21 13.992 20.328 15 19.5 15C18.672 15 18 13.992 18 12.75C18 11.508 18.672 10.5 19.5 10.5C20.328 10.5 21 11.508 21 12.75ZM10.5 15C11.328 15 12 13.992 12 12.75C12 11.508 11.328 10.5 10.5 10.5C9.672 10.5 9 11.508 9 12.75C9 13.992 9.672 15 10.5 15Z" fill="white"/>
</g>
<defs>
<clipPath id="clip0_74_4">
<rect width="30" height="30" fill="white"/>
</clipPath>
</defs>
</svg>
